<svg xmlns="http://www.w3.org/2000/svg" width="22.571" height="22.607" viewBox="0 0 22.571 22.607">
  <g id="Group_2272" data-name="Group 2272" transform="translate(-11.729 -37.243)">
    <path id="noun_notification_101400" d="M1.485,22.607a.193.193,0,0,1-.18-.18v-.18L3.192,18.2.946,12.182A7.851,7.851,0,0,1,5.169,2.3l.359-.18L5.079.77V.59A.088.088,0,0,1,5.169.5h.09a.314.314,0,0,1,.18.09l.539,1.348.449-.09a8.863,8.863,0,0,1,2.157-.27,8.07,8.07,0,0,1,7.549,5.212l2.157,6.021L22.423,14.7c.09,0,.09.09.09.18a.314.314,0,0,1-.09.18l-7.459,2.7.09.359a3.009,3.009,0,0,1-2.067,3.415,4.511,4.511,0,0,1-1.078.18,3.251,3.251,0,0,1-2.7-1.528l-.18-.27-7.549,2.7Zm7.1-20.669a8.349,8.349,0,0,0-2.606.449,7.5,7.5,0,0,0-4.673,9.526l2.247,6.2h0v.09L1.844,21.978l7.189-2.516,5.572-1.977,7.189-2.606L18.02,13.171a.088.088,0,0,1-.09-.09L15.683,6.97A7.536,7.536,0,0,0,8.584,1.938ZM9.3,19.731l.359.449a2.68,2.68,0,0,0,2.157,1.078h0a3.822,3.822,0,0,0,.989-.18,2.62,2.62,0,0,0,1.8-2.7v-.629Z" transform="translate(11.536 36.993)" fill="#464646" stroke="#464646" stroke-width="0.5"/>
  </g>
</svg>
