<svg xmlns="http://www.w3.org/2000/svg" width="139.707" height="118" viewBox="0 0 139.707 118">
  <g id="Group_3937" data-name="Group 3937" transform="translate(-118.239 -200)">
    <rect id="Rectangle_1847" data-name="Rectangle 1847" width="118" height="118" rx="59" transform="translate(129 200)" fill="#f2f6ff"/>
    <g id="Group_2305" data-name="Group 2305" transform="translate(118.239 210.897)">
      <path id="Exclusion_2" data-name="Exclusion 2" d="M27.576,55.153A27.576,27.576,0,1,1,55.153,27.576,27.608,27.608,0,0,1,27.576,55.153Zm-.488-38.342a17.1,17.1,0,0,0-15.88,10.828,17.06,17.06,0,0,0,31.76,0A17.1,17.1,0,0,0,27.088,16.811Zm0,18.046a7.218,7.218,0,1,1,7.218-7.218A7.141,7.141,0,0,1,27.088,34.857Zm0-11.549a4.331,4.331,0,1,0,4.331,4.331A4.236,4.236,0,0,0,27.088,23.308Z" transform="translate(84.055 0)" fill="#3f63ab" stroke="rgba(0,0,0,0)" stroke-miterlimit="10" stroke-width="1"/>
      <g id="Group_2304" data-name="Group 2304" transform="translate(0 10.323)">
        <path id="Subtraction_5" data-name="Subtraction 5" d="M100.049,86.708H13.341a13.34,13.34,0,1,1,13.34-13.34,13.136,13.136,0,0,1-1.85,6.671h75.218v6.668Zm13.784-13.34H33.351V13.339h47.62a31.245,31.245,0,0,0-.237,3.844A30.856,30.856,0,0,0,111.555,48c.759,0,1.525-.028,2.279-.083V73.366ZM44.285,53.359v6.67H77.634v-6.67Zm0-13.34v6.67h20.01v-6.67Zm0-13.339v6.67H77.634v-6.67ZM0,58.5v0L0,13.339A13.378,13.378,0,0,1,13.341,0a13,13,0,0,1,9.4,3.936,13,13,0,0,1,3.936,9.4V58.491A19.9,19.9,0,0,0,0,58.494Z" transform="translate(0 0)" fill="#3f63ab"/>
      </g>
    </g>
  </g>
</svg>
