<svg xmlns="http://www.w3.org/2000/svg" width="129.05" height="129.05" viewBox="0 0 129.05 129.05">
  <g id="Group_318" data-name="Group 318" transform="translate(-2.475 -2.475)">
    <g id="Group_316" data-name="Group 316" transform="translate(36.452 36.452)">
      <path id="Path_38" data-name="Path 38" d="M58.048,27.5A30.548,30.548,0,1,0,88.6,58.048,30.594,30.594,0,0,0,58.048,27.5ZM74.069,51.939,57.505,69.86a4.42,4.42,0,0,1-3.123,1.358h0A4.42,4.42,0,0,1,51.26,69.86L42.027,59.813a4.229,4.229,0,0,1,6.245-5.7L54.518,60.9,67.96,46.372a4.134,4.134,0,1,1,6.11,5.567Z" transform="translate(-27.5 -27.5)" fill="#003195"/>
    </g>
    <g id="Group_317" data-name="Group 317" transform="translate(2.475 2.475)">
      <path id="Path_39" data-name="Path 39" d="M130,70.259a4.1,4.1,0,0,0,0-6.381l-10.047-8.554a4.216,4.216,0,0,1-1.222-4.616l4.48-12.355a4.3,4.3,0,0,0-3.258-5.567l-13.034-2.444a4.033,4.033,0,0,1-3.394-3.394l-2.308-12.9a4.246,4.246,0,0,0-5.567-3.258l-12.355,4.48a4.216,4.216,0,0,1-4.616-1.222L70.123,4a4.1,4.1,0,0,0-6.381,0L55.324,14.049a4.216,4.216,0,0,1-4.616,1.222l-12.355-4.48a4.2,4.2,0,0,0-5.567,3.258L30.342,27.083a4.033,4.033,0,0,1-3.394,3.394l-12.9,2.308a4.246,4.246,0,0,0-3.258,5.567l4.48,12.355a4.216,4.216,0,0,1-1.222,4.616L4,63.877a4.1,4.1,0,0,0,0,6.381l10.047,8.554a4.216,4.216,0,0,1,1.222,4.616l-4.48,12.355a4.12,4.12,0,0,0,3.258,5.431l13.034,2.308a4.033,4.033,0,0,1,3.394,3.394l2.308,13.034a4.246,4.246,0,0,0,5.567,3.258l12.355-4.48a4.216,4.216,0,0,1,4.616,1.222L63.877,130a4.1,4.1,0,0,0,6.381,0l8.554-10.047a4.216,4.216,0,0,1,4.616-1.222l12.355,4.48a4.3,4.3,0,0,0,5.567-3.258l2.308-13.034a4.033,4.033,0,0,1,3.394-3.394l13.034-2.308a4.246,4.246,0,0,0,3.258-5.567l-4.616-12.355a4.216,4.216,0,0,1,1.222-4.616ZM67,105.83A38.83,38.83,0,1,1,105.83,67,38.822,38.822,0,0,1,67,105.83Z" transform="translate(-2.475 -2.475)" fill="#003195"/>
    </g>
  </g>
</svg>
