<svg xmlns="http://www.w3.org/2000/svg" width="24.347" height="19.22" viewBox="0 0 24.347 19.22">
  <g id="picture" transform="translate(0 -37.609)">
    <g id="Group_2331" data-name="Group 2331" transform="translate(0 37.609)">
      <g id="Group_2330" data-name="Group 2330" transform="translate(0 0)">
        <path id="Path_4235" data-name="Path 4235" d="M23.392,40.063H21.947V38.59a.977.977,0,0,0-.981-.981H.981A.977.977,0,0,0,0,38.59v14.8a.977.977,0,0,0,.981.981H2.426v1.472a.977.977,0,0,0,.981.981H23.364a.977.977,0,0,0,.981-.981V41.071A.961.961,0,0,0,23.392,40.063Zm-22.383-1.5,19.957.027V48.705L16.494,45.6a.5.5,0,0,0-.545,0L12,48.3,7.525,43.907a.5.5,0,0,0-.654-.027L.981,48.76ZM.954,53.394V50.014l6.189-5.125,4.444,4.362a.5.5,0,0,0,.627.055l4.008-2.726,4.744,3.3v3.517a.027.027,0,0,1-.027.027ZM23.392,55.9,3.408,55.875V54.4H20.965a.977.977,0,0,0,.981-.981V41.044l1.472.027Z" transform="translate(0 -37.609)" fill="#5172b6"/>
      </g>
    </g>
    <g id="Group_2333" data-name="Group 2333" transform="translate(12.923 40.09)">
      <g id="Group_2332" data-name="Group 2332" transform="translate(0 0)">
        <path id="Path_4236" data-name="Path 4236" d="M191.754,74.009a2.154,2.154,0,1,0,2.154,2.154A2.158,2.158,0,0,0,191.754,74.009Zm0,3.353a1.2,1.2,0,1,1,1.2-1.2A1.21,1.21,0,0,1,191.754,77.362Z" transform="translate(-189.6 -74.009)" fill="#5172b6"/>
      </g>
    </g>
  </g>
</svg>
