<svg xmlns="http://www.w3.org/2000/svg" width="16.279" height="20.349" viewBox="0 0 16.279 20.349">
  <g id="noun_Wallet_1558953" transform="translate(-8 -2)">
    <path id="Path_2785" data-name="Path 2785" d="M34,48.017A1.017,1.017,0,1,0,35.017,47,1.017,1.017,0,0,0,34,48.017Zm1.357,0a.339.339,0,1,1-.339-.339A.339.339,0,0,1,35.357,48.017Z" transform="translate(-17.182 -29.738)" fill="#4a7cc8"/>
    <path id="Path_2786" data-name="Path 2786" d="M8.339,22.349h15.6a.339.339,0,0,0,.339-.339V10.479a.339.339,0,0,0-.339-.339H21.905v-7.8A.339.339,0,0,0,21.566,2H14.783a.339.339,0,0,0-.339.339V5.392H10.713a.339.339,0,0,0-.339.339V10.14H8.339A.339.339,0,0,0,8,10.479V22.01A.339.339,0,0,0,8.339,22.349ZM23.6,19.975H17.835a1.7,1.7,0,0,1,0-3.392H23.6ZM21.227,3.648a1.357,1.357,0,0,1-.969-.969h.969Zm-5.135-.969a1.357,1.357,0,0,1-.969.969V2.678Zm-.969,1.665a2.038,2.038,0,0,0,1.665-1.665h2.774a2.038,2.038,0,0,0,1.665,1.665v5.8H17.835V9.422a1.645,1.645,0,0,0,.339.039,1.7,1.7,0,0,0,0-3.392,1.645,1.645,0,0,0-.339.039V5.731a.339.339,0,0,0-.339-.339H15.122Zm2.035,2.7a1.357,1.357,0,0,1-.969-.969h.969Zm.678-.221a.963.963,0,0,1,.339-.07,1.017,1.017,0,0,1,0,2.035.963.963,0,0,1-.339-.07ZM12.022,6.07a1.357,1.357,0,0,1-.969.969V6.07Zm-.969,1.665A2.038,2.038,0,0,0,12.718,6.07h2.774a2.038,2.038,0,0,0,1.665,1.665v2.4H15.767a1.7,1.7,0,0,0-3.324,0H11.052Zm4.007,2.4H13.15a1.011,1.011,0,0,1,1.91,0Zm-6.381.678h.678v7.461h.678V10.818H23.6v5.087H17.835a2.374,2.374,0,0,0,0,4.748H23.6v1.017H8.678Z" fill="#4a7cc8"/>
    <rect id="Rectangle_661" data-name="Rectangle 661" width="0.509" height="0.509" transform="translate(9.526 20.187)" fill="#4a7cc8"/>
    <rect id="Rectangle_662" data-name="Rectangle 662" width="0.509" height="1.017" transform="translate(9.526 18.661)" fill="#4a7cc8"/>
  </g>
</svg>
