<svg xmlns="http://www.w3.org/2000/svg" width="30.003" height="39.671" viewBox="0 0 30.003 39.671">
  <path id="Exclusion_1" data-name="Exclusion 1" d="M1621.931,38.671h-24.86A2.074,2.074,0,0,1,1595,36.6V2.072A2.074,2.074,0,0,1,1597.072,0h18.644V6.214a2.074,2.074,0,0,0,2.072,2.072H1624V36.6A2.074,2.074,0,0,1,1621.931,38.671Zm-8.286-12.43v1.381h4.143V26.241Zm-6.906,0v1.381h5.524V26.241Zm-6.906,0v1.381h5.524V26.241Zm13.811-4.144v1.382h5.524V22.1Zm-4.144,0v1.382h2.762V22.1Zm-9.668,0v1.382h8.286V22.1Zm6.906-4.144v1.382h12.43V17.954Zm-2.762,0v1.382h1.381V17.954Zm-4.144,0v1.382h2.762V17.954Zm5.314-13.08a6.1,6.1,0,0,0-5.667,3.864,6.088,6.088,0,0,0,11.335,0A6.1,6.1,0,0,0,1605.148,4.874Zm0,6.44a2.576,2.576,0,1,1,2.577-2.577A2.549,2.549,0,0,1,1605.148,11.315Zm0-4.122a1.546,1.546,0,1,0,1.546,1.545A1.511,1.511,0,0,0,1605.148,7.193Zm17.879-.287h-5.239a.692.692,0,0,1-.69-.691V.976l5.927,5.927Z" transform="translate(-1594.5 0.5)" fill="#3f63ab" stroke="rgba(0,0,0,0)" stroke-miterlimit="10" stroke-width="1"/>
</svg>
