<svg xmlns="http://www.w3.org/2000/svg" width="35.334" height="35.334" viewBox="0 0 35.334 35.334">
  <g id="Group_2319" data-name="Group 2319" transform="translate(-295 -201)">
    <path id="Subtraction_6" data-name="Subtraction 6" d="M1175.258,35.334c-5.188,0-10.439-1.382-10.439-4.022v-.243a.8.8,0,0,1,1.175-.713,25.257,25.257,0,0,0,18.528,0,.8.8,0,0,1,.37-.091.8.8,0,0,1,.805.8v.243C1185.7,33.952,1180.446,35.334,1175.258,35.334Zm0-4.827c-5.188,0-10.439-1.382-10.439-4.022,0-1.224,1.128-2.251,3.262-2.971a26.506,26.506,0,0,1,14.354,0c2.134.72,3.262,1.747,3.262,2.971C1185.7,29.126,1180.446,30.507,1175.258,30.507Zm12.6-1.766a.8.8,0,0,1-.76-1.067,3.594,3.594,0,0,0,.2-1.189.93.93,0,0,1,.707-.964,17.372,17.372,0,0,0,6.148-1.6.8.8,0,0,1,1.175.712v.243c0,1.917-2.761,3.361-7.385,3.861C1187.915,28.74,1187.887,28.741,1187.862,28.741Zm-1.162-4.728a.811.811,0,0,1-.568-.235,7.145,7.145,0,0,0-2.111-1.4.806.806,0,0,1-.451-.907.83.83,0,0,1,.749-.631l.044,0,.53.01a20.86,20.86,0,0,0,9.265-1.759.8.8,0,0,1,1.175.713v.242c0,2.523-4.623,3.712-8.582,3.963Zm-19.984-1.8a.765.765,0,0,1-.111-.008c-4.136-.579-6.605-1.986-6.605-3.764V18.2a.8.8,0,0,1,1.175-.713,20.847,20.847,0,0,0,9.264,1.76c.471,0,.969-.013,1.568-.042h.038a.8.8,0,0,1,.8.8.973.973,0,0,1-.708,1,19.319,19.319,0,0,0-5.128,1.146A.8.8,0,0,1,1166.716,22.213Zm9.089-1.35h-.014l-.533-.009a.8.8,0,0,1-.8-.8v-.243a.806.806,0,0,1,.8-.8.8.8,0,0,1,.369.091c.1.054.214.1.337.156l.172.077a.81.81,0,0,1,.451.91A.8.8,0,0,1,1175.805,20.863Zm9.089-1.618c-5.188,0-10.439-1.382-10.439-4.022v-.242a.8.8,0,0,1,1.175-.713,20.858,20.858,0,0,0,9.264,1.76,20.86,20.86,0,0,0,9.265-1.76.8.8,0,0,1,1.175.713v.242C1195.334,17.863,1190.082,19.245,1184.894,19.245Zm-14.454-1.608c-5.188,0-10.44-1.382-10.44-4.022v-.243a.8.8,0,0,1,1.175-.713,20.849,20.849,0,0,0,9.265,1.76c.47,0,.968-.013,1.567-.042l.052,0a.794.794,0,0,1,.541.223.809.809,0,0,1,.249.582,3.652,3.652,0,0,0,.232,1.309.8.8,0,0,1-.7,1.084C1171.729,17.615,1171.076,17.636,1170.44,17.636Zm14.454-3.218c-5.188,0-10.439-1.382-10.439-4.022,0-1.223,1.128-2.25,3.262-2.97a26.51,26.51,0,0,1,14.354,0c2.134.72,3.262,1.747,3.262,2.97C1195.334,13.036,1190.082,14.418,1184.894,14.418ZM1170.44,12.81c-5.188,0-10.44-1.382-10.44-4.022V8.545a.8.8,0,0,1,1.175-.713,20.849,20.849,0,0,0,9.265,1.76c.471,0,.97-.013,1.571-.042a.6.6,0,0,1,.062,0,.794.794,0,0,1,.531.225.809.809,0,0,1,.249.582,3.558,3.558,0,0,0,.228,1.309.8.8,0,0,1-.7,1.084C1171.729,12.788,1171.076,12.81,1170.44,12.81Zm0-4.827c-5.188,0-10.44-1.382-10.44-4.022,0-1.224,1.128-2.251,3.262-2.971a26.506,26.506,0,0,1,14.354,0c2.134.72,3.262,1.747,3.262,2.971a1.909,1.909,0,0,1-.123.657.805.805,0,0,1-.624.523,11.652,11.652,0,0,0-6.01,2.446.789.789,0,0,1-.458.212A28.078,28.078,0,0,1,1170.44,7.983Z" transform="translate(-865 201)" fill="#3f63ab"/>
  </g>
</svg>
