<svg xmlns="http://www.w3.org/2000/svg" width="37.913" height="41.965" viewBox="0 0 37.913 41.965">
  <g id="Group_2317" data-name="Group 2317" transform="translate(-295 -201)">
    <path id="Subtraction_6" data-name="Subtraction 6" d="M1175.258,35.334c-5.188,0-10.439-1.382-10.439-4.022v-.243a.8.8,0,0,1,1.175-.713,20.844,20.844,0,0,0,9.264,1.76h.243a12.515,12.515,0,0,0,.447,3.21C1175.691,35.332,1175.465,35.334,1175.258,35.334Zm0-4.827c-5.188,0-10.439-1.382-10.439-4.022,0-1.224,1.128-2.251,3.262-2.971a23.407,23.407,0,0,1,7.177-.99,28.676,28.676,0,0,1,4.246.307,12.5,12.5,0,0,0-3.916,7.674h-.331Zm-8.542-8.294a.765.765,0,0,1-.111-.008c-4.136-.579-6.605-1.986-6.605-3.764V18.2a.8.8,0,0,1,1.175-.713,20.847,20.847,0,0,0,9.264,1.76c.471,0,.969-.013,1.568-.042h.038a.8.8,0,0,1,.8.8.973.973,0,0,1-.708,1,19.319,19.319,0,0,0-5.128,1.146A.8.8,0,0,1,1166.716,22.213Zm28.041-.731h0a12.446,12.446,0,0,0-3.088-1.434,12.639,12.639,0,0,0,2.49-.953.8.8,0,0,1,1.175.713v.242a2.142,2.142,0,0,1-.576,1.432Zm-18.952-.619h-.014l-.533-.009a.8.8,0,0,1-.8-.8v-.243a.806.806,0,0,1,.8-.8.8.8,0,0,1,.369.091c.1.054.214.1.337.156l.172.077a.81.81,0,0,1,.451.91A.8.8,0,0,1,1175.805,20.863Zm9.089-1.618c-5.188,0-10.439-1.382-10.439-4.022v-.242a.8.8,0,0,1,1.175-.713,20.858,20.858,0,0,0,9.264,1.76,20.86,20.86,0,0,0,9.265-1.76.8.8,0,0,1,1.175.713v.242C1195.334,17.863,1190.082,19.245,1184.894,19.245Zm-14.454-1.608c-5.188,0-10.44-1.382-10.44-4.022v-.243a.8.8,0,0,1,1.175-.713,20.849,20.849,0,0,0,9.265,1.76c.47,0,.968-.013,1.567-.042l.052,0a.794.794,0,0,1,.541.223.809.809,0,0,1,.249.582,3.652,3.652,0,0,0,.232,1.309.8.8,0,0,1-.7,1.084C1171.729,17.615,1171.076,17.636,1170.44,17.636Zm14.454-3.218c-5.188,0-10.439-1.382-10.439-4.022,0-1.223,1.128-2.25,3.262-2.97a26.51,26.51,0,0,1,14.354,0c2.134.72,3.262,1.747,3.262,2.97C1195.334,13.036,1190.082,14.418,1184.894,14.418ZM1170.44,12.81c-5.188,0-10.44-1.382-10.44-4.022V8.545a.8.8,0,0,1,1.175-.713,20.849,20.849,0,0,0,9.265,1.76c.471,0,.97-.013,1.571-.042a.6.6,0,0,1,.062,0,.794.794,0,0,1,.531.225.809.809,0,0,1,.249.582,3.558,3.558,0,0,0,.228,1.309.8.8,0,0,1-.7,1.084C1171.729,12.788,1171.076,12.81,1170.44,12.81Zm0-4.827c-5.188,0-10.44-1.382-10.44-4.022,0-1.224,1.128-2.251,3.262-2.971a26.506,26.506,0,0,1,14.354,0c2.134.72,3.262,1.747,3.262,2.971a1.909,1.909,0,0,1-.123.657.805.805,0,0,1-.624.523,11.652,11.652,0,0,0-6.01,2.446.789.789,0,0,1-.458.212A28.078,28.078,0,0,1,1170.44,7.983Z" transform="translate(-865 201)" fill="#3f63ab"/>
    <g id="Group_2316" data-name="Group 2316" transform="translate(312.667 222.719)">
      <path id="Path_38" data-name="Path 38" d="M37.623,27.5A10.123,10.123,0,1,0,47.746,37.623,10.138,10.138,0,0,0,37.623,27.5Z" transform="translate(-27.5 -27.5)" fill="#3f63ab"/>
      <g id="Group_2320" data-name="Group 2320">
        <rect id="Rectangle_1850" data-name="Rectangle 1850" width="2.5" height="14" rx="1.25" transform="translate(13.722 4.27) rotate(45)" fill="#fff"/>
        <rect id="Rectangle_1851" data-name="Rectangle 1851" width="2.5" height="14" rx="1.25" transform="translate(15.843 14.17) rotate(135)" fill="#fff"/>
      </g>
    </g>
  </g>
</svg>
