<svg id="list" xmlns="http://www.w3.org/2000/svg" width="33.867" height="33.867" viewBox="0 0 33.867 33.867">
  <g id="Group_2313" data-name="Group 2313">
    <path id="Path_1311" data-name="Path 1311" d="M30.238,0H3.629A3.629,3.629,0,0,0,0,3.629v26.61a3.629,3.629,0,0,0,3.629,3.629h26.61a3.629,3.629,0,0,0,3.629-3.629V3.629A3.629,3.629,0,0,0,30.238,0ZM10.886,26.61H7.257a1.21,1.21,0,1,1,0-2.419h3.629a1.21,1.21,0,1,1,0,2.419Zm0-8.467H7.257a1.21,1.21,0,1,1,0-2.419h3.629a1.21,1.21,0,1,1,0,2.419Zm0-8.467H7.257a1.21,1.21,0,1,1,0-2.419h3.629a1.21,1.21,0,1,1,0,2.419ZM26.61,26.61H15.724a1.21,1.21,0,1,1,0-2.419H26.61a1.21,1.21,0,0,1,0,2.419Zm0-8.467H15.724a1.21,1.21,0,1,1,0-2.419H26.61a1.21,1.21,0,0,1,0,2.419Zm0-8.467H15.724a1.21,1.21,0,1,1,0-2.419H26.61a1.21,1.21,0,0,1,0,2.419Z" fill="#3f63ab"/>
  </g>
</svg>
