<svg xmlns="http://www.w3.org/2000/svg" width="36.541" height="33.496" viewBox="0 0 36.541 33.496">
  <path id="cells" d="M31.973,1H4.568A4.573,4.573,0,0,0,0,5.568V29.928A4.573,4.573,0,0,0,4.568,34.5H31.973a4.573,4.573,0,0,0,4.568-4.568V5.568A4.573,4.573,0,0,0,31.973,1ZM11.419,11.658h5.329v4.568H11.419ZM8.374,16.225H3.045V11.658H8.374Zm11.419-4.568h5.329v4.568H19.793Zm8.374,0H33.5v4.568H28.167ZM3.045,19.271H8.374v4.568H3.045Zm8.374,0h5.329v4.568H11.419Zm5.329,7.613v4.568H11.419V26.883Zm3.045,0h5.329v4.568H19.793Zm0-3.045V19.271h5.329v4.568Zm8.374-4.568H33.5v4.568H28.167ZM3.045,29.928V26.883H8.374v4.568H4.568A1.525,1.525,0,0,1,3.045,29.928Zm28.928,1.523H28.167V26.883H33.5v3.045A1.525,1.525,0,0,1,31.973,31.451Z" transform="translate(0 -1)" fill="#3f63ab"/>
</svg>
