<svg xmlns="http://www.w3.org/2000/svg" width="31.463" height="37.774" viewBox="0 0 31.463 37.774">
  <g id="receipt" transform="translate(-42.773)">
    <g id="Group_2324" data-name="Group 2324" transform="translate(49.644)">
      <g id="Group_2323" data-name="Group 2323" transform="translate(0)">
        <path id="Path_4228" data-name="Path 4228" d="M157.145,2.577,152.673,0,148.2,2.577,143.73,0l-4.471,2.577L135.906.645V31h19.957v4.454a2.317,2.317,0,1,0,4.634,0V.645ZM138.629,20.22V17.983H148.2V20.22Zm19.145-4.885H138.629V13.1h19.145Zm0-4.885H138.629V8.214h19.145Z" transform="translate(-135.906)" fill="#3f63ab"/>
      </g>
    </g>
    <g id="Group_2326" data-name="Group 2326" transform="translate(42.773 33.24)">
      <g id="Group_2325" data-name="Group 2325" transform="translate(0)">
        <path id="Path_4229" data-name="Path 4229" d="M67.365,452.761v-2.217H42.773v2.217a2.32,2.32,0,0,0,2.317,2.317H68A4.526,4.526,0,0,1,67.365,452.761Z" transform="translate(-42.773 -450.544)" fill="#3f63ab"/>
      </g>
    </g>
  </g>
</svg>
