<svg id="noun_Time_6731" xmlns="http://www.w3.org/2000/svg" width="36.819" height="33.988" viewBox="0 0 36.819 33.988">
  <path id="Path_4226" data-name="Path 4226" d="M20.192.007C20.156,0,20.119,0,20.082,0a1.677,1.677,0,0,0-1.657,1.772c0,.965.376,1.749,1.848,1.769v.006A13.536,13.536,0,0,1,33.388,16.952,13.545,13.545,0,0,1,19.924,30.446,13.356,13.356,0,0,1,6.494,18.127H9.607L4.8,10.14,0,18.127H2.946A16.957,16.957,0,1,0,20.192.007Z" fill="#3f63ab"/>
  <path id="Path_4227" data-name="Path 4227" d="M45.078,19.784a1.539,1.539,0,0,0-1.5-1.55h-.324a1.527,1.527,0,0,0-1.487,1.55V28.7L37.4,33.053a1.679,1.679,0,0,0,0,2.331,1.635,1.635,0,0,0,2.327,0l4.823-4.823c.037-.041.066-.081.1-.118a1.514,1.514,0,0,0,.427-1.057v-9.6Z" transform="translate(-23.332 -11.52)" fill="#3f63ab"/>
</svg>
