<svg xmlns="http://www.w3.org/2000/svg" width="45.031" height="45.032" viewBox="0 0 45.031 45.032">
  <path id="Subtraction_7" data-name="Subtraction 7" d="M12515.517,45.032a1.328,1.328,0,0,1-.935-.387l-5.821-5.821h-8.231a1.323,1.323,0,0,1-1.322-1.322V29.27l-5.821-5.821a1.322,1.322,0,0,1,0-1.866l5.821-5.821V7.527a1.322,1.322,0,0,1,1.322-1.318h8.231l5.821-5.821a1.318,1.318,0,0,1,1.866,0l5.821,5.821h8.234a1.32,1.32,0,0,1,1.318,1.318v8.235l5.821,5.821a1.316,1.316,0,0,1,0,1.866l-5.821,5.821V37.5a1.322,1.322,0,0,1-1.318,1.322h-8.234l-5.821,5.821A1.328,1.328,0,0,1,12515.517,45.032Zm.016-23.8c-.461,0-.8.3-1.038.928a4.029,4.029,0,0,0-.255,1.435,1.019,1.019,0,0,0,.588,1.073,4,4,0,0,0,1.161.107c-.013.177-.383.494-1.1.944a14.449,14.449,0,0,1-1.366.768.249.249,0,0,0-.16.239c0,.2.123.3.365.3h2.061a.344.344,0,0,0,.265-.107,3.527,3.527,0,0,0,.78-2.184h.541a1.328,1.328,0,0,0,1.1-.661,1.479,1.479,0,0,0,.384.422,1.039,1.039,0,0,0,.642.239h.4a1,1,0,0,0,.827-.566,1.542,1.542,0,0,0,.724.4,2.927,2.927,0,0,0,.859.138,2.652,2.652,0,0,0,2.2-1.057,2.9,2.9,0,0,0,.664-1.8,1.215,1.215,0,0,0-.283-.787,1.069,1.069,0,0,0-.878-.4,2.068,2.068,0,0,0-1.25.525,6.785,6.785,0,0,0-.956.975,3.52,3.52,0,0,1-.472.529c-.136,0-.253-.165-.347-.491s-.2-.494-.314-.494c-.1,0-.172.086-.229.264-.1.31-.152.464-.17.5a.455.455,0,0,1-.422.264h-.306a.369.369,0,0,1-.32-.186.676.676,0,0,1-.1-.374V18.207c0-.075,0-.1-.009-.1a.02.02,0,0,0-.015-.005.15.15,0,0,0-.07.031l-1.338.862c-.031.018-.047.055-.047.113l.142,2.948a.747.747,0,0,1-.141.562.442.442,0,0,1-.335.124h-.521C12516.591,21.741,12516.169,21.234,12515.532,21.234Zm-10.394.066c-.167,0-.312.186-.431.554a3.265,3.265,0,0,0-.164,1,1.741,1.741,0,0,0,.844,1.658,4.21,4.21,0,0,0,1.938.346,4.67,4.67,0,0,0,2.357-.463,2.3,2.3,0,0,0,.984-2.133,2.387,2.387,0,0,0-.821-1.857.113.113,0,0,0-.069-.033c-.025,0-.046.016-.062.048l-.749,1.344a.1.1,0,0,0,.041.142,2.382,2.382,0,0,1,.6.513.348.348,0,0,1,.088.164c0,.034-.034.072-.1.116a1.679,1.679,0,0,1-.721.167c-.2.015-.672.022-1.482.022a2.815,2.815,0,0,1-1.749-.384.987.987,0,0,1-.255-.758.551.551,0,0,0-.1-.388A.2.2,0,0,0,12505.139,21.3Zm7.562-3.172c-.029,0-.087.047-.167.135l-1.328,1.444c.388,2.594.646,4.133.765,4.575.09.318.189.472.306.472s.224-.13.346-.387a4.308,4.308,0,0,0,.274-.947,5.211,5.211,0,0,0,.119-.979c0-1.092-.006-1.84-.016-2.105a11.76,11.76,0,0,0-.236-2.086C12512.743,18.166,12512.725,18.128,12512.7,18.128Zm-5.987,1.707a.1.1,0,0,0-.067.033l-.481.488a.106.106,0,0,0-.037.076.078.078,0,0,0,.028.057l.522.513a.08.08,0,0,0,.057.028.083.083,0,0,0,.057-.028l.481-.481.5.478a.08.08,0,0,0,.056.029.083.083,0,0,0,.055-.026l.525-.513a.089.089,0,0,0,.031-.063.061.061,0,0,0-.028-.044l-.532-.513a.1.1,0,0,0-.069-.033.089.089,0,0,0-.065.033l-.469.469-.491-.469A.1.1,0,0,0,12506.713,19.835Zm8.766,3.359c-.33,0-.5-.056-.5-.167,0-.205.133-.305.406-.305a.654.654,0,0,1,.336.12c.14.086.208.173.208.267C12515.932,23.165,12515.779,23.194,12515.479,23.194Zm6.835-.274c-.129,0-.263,0-.4-.009a2.531,2.531,0,0,1,1.517-.913c.4,0,.6.17.6.507,0,.092-.146.184-.425.267A4.774,4.774,0,0,1,12522.313,22.92Z" transform="translate(-12493)" fill="#3f63ab"/>
</svg>
