<svg id="user" xmlns="http://www.w3.org/2000/svg" width="35.091" height="37.569" viewBox="0 0 35.091 37.569">
  <path id="Path_4520" data-name="Path 4520" d="M256,434.289l3.965-.915-3.05-3.05Z" transform="translate(-238.454 -396.72)" fill="#3f63ab"/>
  <path id="Path_4521" data-name="Path 4521" d="M64.8,228.109l.656-2.843c0-.007,0-.014.006-.02s.006-.023.01-.035.007-.021.011-.032l.012-.029c0-.012.01-.023.016-.034l.013-.024.021-.034.014-.021.024-.033.016-.02c.008-.01.018-.02.027-.03l.011-.012,8.842-8.842c-2.468-5.077-7.033-8.1-12.27-8.1a13.12,13.12,0,0,0-9.99,4.629,18.4,18.4,0,0,0-4.179,11.835c1.549.781,7.911,3.783,14.169,3.783a25.145,25.145,0,0,0,2.592-.138Z" transform="translate(-48.043 -193.152)" fill="#3f63ab"/>
  <path id="Path_4522" data-name="Path 4522" d="M0,0H14.848V5.4H0Z" transform="translate(19.024 32.265) rotate(-45)" fill="#3f63ab"/>
  <circle id="Ellipse_80" data-name="Ellipse 80" cx="6.749" cy="6.749" r="6.749" transform="translate(7.42)" fill="#3f63ab"/>
  <path id="Path_4523" data-name="Path 4523" d="M413.981,272.027a2.7,2.7,0,0,0-4.608-1.909l3.818,3.818A2.681,2.681,0,0,0,413.981,272.027Z" transform="translate(-378.89 -249.306)" fill="#3f63ab"/>
</svg>
