<svg id="stars" xmlns="http://www.w3.org/2000/svg" width="36.297" height="37.453" viewBox="0 0 36.297 37.453">
  <g id="Group_3945" data-name="Group 3945" transform="translate(0)">
    <g id="Group_3944" data-name="Group 3944">
      <path id="Path_4518" data-name="Path 4518" d="M41.02,12.567a.684.684,0,0,0-.312-.168L29.818,9.884,24.072.333a.683.683,0,0,0-1.173,0l-5.75,9.551L6.28,12.4a.683.683,0,0,0-.362,1.109l7.313,8.43-.984,11.114a.679.679,0,0,0,.944.687l9.423-3.986L19.359,26a1.973,1.973,0,0,1,1.049-3.215l5.9-1.366,3.118-5.183a1.981,1.981,0,0,1,2.7-.679,1.949,1.949,0,0,1,.683.687l2.411,3.994,5.822-6.706A.683.683,0,0,0,41.02,12.567Z" transform="translate(-5.754 0)" fill="#3f63ab"/>
    </g>
  </g>
  <g id="Group_3947" data-name="Group 3947" transform="translate(14.405 16.579)">
    <g id="Group_3946" data-name="Group 3946">
      <path id="Path_4519" data-name="Path 4519" d="M170.83,172.673a.683.683,0,0,0-.312-.168l-6.429-1.487-3.4-5.646a.683.683,0,0,0-1.173,0l-3.411,5.646-6.429,1.487a.683.683,0,0,0-.362,1.109l4.336,4.983-.571,6.574a.679.679,0,0,0,.944.687l6.076-2.576,6.027,2.552a.683.683,0,0,0,1-.663l-.575-6.574,4.3-4.958A.683.683,0,0,0,170.83,172.673Z" transform="translate(-149.154 -165.04)" fill="#3f63ab"/>
    </g>
  </g>
</svg>
