<svg id="video_1_" data-name="video (1)" xmlns="http://www.w3.org/2000/svg" width="36.526" height="34.243" viewBox="0 0 36.526 34.243">
  <path id="Path_4524" data-name="Path 4524" d="M179.549,16h-5l-8.561,6.421h4.995Z" transform="translate(-154.151 -16)" fill="#3f63ab"/>
  <path id="Path_4525" data-name="Path 4525" d="M299.62,16h-5.066l-8.561,6.421h4.995Z" transform="translate(-265.591 -16)" fill="#3f63ab"/>
  <path id="Path_4526" data-name="Path 4526" d="M405.991,33.322h7.563v-5.35a1.027,1.027,0,0,0-.047-.233Z" transform="translate(-377.028 -26.902)" fill="#3f63ab"/>
  <path id="Path_4527" data-name="Path 4527" d="M44.993,22.421h5.066L58.62,16h-5Z" transform="translate(-41.783 -16)" fill="#3f63ab"/>
  <path id="Path_4528" data-name="Path 4528" d="M0,160.612a1.069,1.069,0,0,0,1.07,1.07H35.455a1.069,1.069,0,0,0,1.07-1.07V136H0ZM12.912,141.35a1.07,1.07,0,0,1,1.621-.918l10.7,6.42a1.07,1.07,0,0,1,0,1.835l-10.7,6.42a1.07,1.07,0,0,1-1.621-.917Z" transform="translate(0 -127.439)" fill="#3f63ab"/>
  <path id="Path_4529" data-name="Path 4529" d="M1.07,16A1.069,1.069,0,0,0,0,17.07v5.083L8.276,16Z" transform="translate(0 -16)" fill="#3f63ab"/>
  <path id="Path_4530" data-name="Path 4530" d="M211,237.5v9.06l7.551-4.53Z" transform="translate(-195.947 -221.698)" fill="#3f63ab"/>
</svg>
