<svg xmlns="http://www.w3.org/2000/svg" width="41.974" height="39.951" viewBox="0 0 41.974 39.951">
  <g id="Group_489" data-name="Group 489" transform="translate(0 -11.671)">
    <path id="Path_40" data-name="Path 40" d="M261.751,29.092l-6.125-6.125v5.412a.713.713,0,0,0,.713.713Z" transform="translate(-232.797 -10.287)" fill="#3f63ab"/>
    <path id="Path_41" data-name="Path 41" d="M29.963,39.6l-1.355,2.349a.715.715,0,0,1-.225.238l-1.332.876a.707.707,0,0,1-.393.118.715.715,0,0,1-.357-.1l-1.427,2.471-1.236-.713,1.427-2.471a.715.715,0,0,1-.357-.661l.1-1.592A.7.7,0,0,1,24.9,39.8l5.124-8.871h-.058v-10.7H23.542a2.14,2.14,0,0,1-2.14-2.14V11.671H2.14A2.14,2.14,0,0,0,0,13.811v35.67a2.14,2.14,0,0,0,2.14,2.14H27.823a2.14,2.14,0,0,0,2.14-2.14Zm-4.994-3.67H19.262V34.5h5.707ZM23.542,38.78v1.427h-4.28V38.78Zm1.427-8.561v1.427H12.128V30.22ZM17.835,34.5v1.427H14.982V34.5ZM8.027,17.1a3.672,3.672,0,1,1-3.672,3.672A3.672,3.672,0,0,1,8.027,17.1ZM10.7,30.22v1.427H9.274V30.22Zm-5.707,0H7.847v1.427H4.994Zm0,4.28h8.561v1.427H4.994ZM10.7,40.207H4.994V38.78H10.7Zm1.427-1.427h5.707v1.427H12.128Zm12.841,8.861a2.39,2.39,0,0,1-1.366-.4,1.111,1.111,0,0,0-1.267,0,2.526,2.526,0,0,1-2.732,0,1.106,1.106,0,0,0-1.261,0,2.52,2.52,0,0,1-2.73,0,1,1,0,0,0-.63-.2V45.615a2.38,2.38,0,0,1,1.365.4,1.107,1.107,0,0,0,1.262,0,2.519,2.519,0,0,1,2.73,0,1,1,0,0,0,.632.2,1.014,1.014,0,0,0,.633-.2,2.529,2.529,0,0,1,2.733,0,1.015,1.015,0,0,0,.634.2Z" transform="translate(0 0)" fill="#3f63ab"/>
    <path id="Path_42" data-name="Path 42" d="M302.529,147.913l-9.547,16.535-.059.984.472.273.822-.544,9.547-16.535Z" transform="translate(-266.763 -124.075)" fill="#3f63ab"/>
    <path id="Path_43" data-name="Path 43" d="M411.492,96.6a.714.714,0,0,0-1.236-.713l-1.783,3.089,1.236.713Z" transform="translate(-371.994 -76.377)" fill="#3f63ab"/>
    <path id="Path_44" data-name="Path 44" d="M424.359,125.372l-1.236-.713,2.5-4.325-1.236-.713.713-1.236,1.855,1.07a.714.714,0,0,1,.261.975Z" transform="translate(-385.335 -97.184)" fill="#3f63ab"/>
  </g>
</svg>
