<svg xmlns="http://www.w3.org/2000/svg" width="39.523" height="48.814" viewBox="0 0 39.523 48.814">
  <g id="Group_2300" data-name="Group 2300" transform="translate(-46.238 -336.396)">
    <path id="Subtraction_4" data-name="Subtraction 4" d="M1631.1,33.526h-4.317a1.008,1.008,0,0,1-.043-.753l1.018-2.807a.955.955,0,0,0-.077-.787,1,1,0,0,0-.664-.477l-.775-.145V20.833a7.948,7.948,0,0,0-.481-2.733h3.056a5.712,5.712,0,0,1,5.705,5.705v6.3A3.427,3.427,0,0,1,1631.1,33.526Zm-27.908,0h-4.768A3.427,3.427,0,0,1,1595,30.1v-6.3A5.712,5.712,0,0,1,1600.7,18.1h3.056a7.945,7.945,0,0,0-.482,2.733v7.81l-.323.058a.915.915,0,0,0-.647.437.989.989,0,0,0-.094.827l1.018,2.807a1.008,1.008,0,0,1-.042.753Zm2.371-5.291h0v-7.4a5.712,5.712,0,0,1,5.705-5.705h6.988a5.712,5.712,0,0,1,5.706,5.705v7.294a.921.921,0,0,1-.676-.751l-.525-2.93a.948.948,0,0,0-.953-.791.985.985,0,0,0-.311.05l-2.807,1.018a1.032,1.032,0,0,1-.327.053.912.912,0,0,1-.721-.33l-1.944-2.282a.929.929,0,0,0-1.449,0l-1.913,2.282a.912.912,0,0,1-.721.33,1.033,1.033,0,0,1-.327-.053l-2.807-1.018a1.073,1.073,0,0,0-.322-.05.931.931,0,0,0-.942.791l-.555,2.961a.918.918,0,0,1-.771.771l-.324.058Zm21.248-11.576a5.086,5.086,0,0,1-2.022-.416,5.13,5.13,0,1,1,2.022.416Zm-24.1,0a5.132,5.132,0,1,1,2.021-.416A5.083,5.083,0,0,1,1602.713,16.658Zm12.048-2.935a6.867,6.867,0,1,1,3.353-.877A6.853,6.853,0,0,1,1614.761,13.723Z" transform="translate(-1548.762 336.396)" fill="#3f63ab"/>
    <g id="Group_2299" data-name="Group 2299" transform="translate(53.885 360.53)">
      <g id="Group_316" data-name="Group 316" transform="translate(6.498 6.498)">
        <path id="Path_38" data-name="Path 38" d="M33.342,27.5a5.842,5.842,0,1,0,5.842,5.842A5.851,5.851,0,0,0,33.342,27.5Zm3.064,4.674L33.238,35.6a.845.845,0,0,1-.6.26h0a.845.845,0,0,1-.6-.26L30.278,33.68a.809.809,0,0,1,1.194-1.091l1.194,1.3,2.571-2.778a.791.791,0,1,1,1.168,1.065Z" transform="translate(-27.5 -27.5)" fill="#3f63ab"/>
      </g>
      <g id="Group_317" data-name="Group 317" transform="translate(0 0)">
        <path id="Path_39" data-name="Path 39" d="M26.862,15.438a.783.783,0,0,0,0-1.22l-1.921-1.636a.806.806,0,0,1-.234-.883l.857-2.363a.821.821,0,0,0-.623-1.065L22.448,7.8a.771.771,0,0,1-.649-.649l-.441-2.467a.812.812,0,0,0-1.065-.623l-2.363.857a.806.806,0,0,1-.883-.234L15.412,2.767a.783.783,0,0,0-1.22,0l-1.61,1.921a.806.806,0,0,1-.883.234L9.336,4.065a.8.8,0,0,0-1.065.623L7.8,7.181a.771.771,0,0,1-.649.649l-2.467.441a.812.812,0,0,0-.623,1.065L4.922,11.7a.806.806,0,0,1-.234.883L2.767,14.218a.783.783,0,0,0,0,1.22l1.921,1.636a.806.806,0,0,1,.234.883l-.857,2.363a.788.788,0,0,0,.623,1.039l2.493.441a.771.771,0,0,1,.649.649l.441,2.493a.812.812,0,0,0,1.065.623l2.363-.857a.806.806,0,0,1,.883.234l1.636,1.921a.783.783,0,0,0,1.22,0l1.636-1.921a.806.806,0,0,1,.883-.234l2.363.857a.821.821,0,0,0,1.065-.623l.441-2.493a.771.771,0,0,1,.649-.649l2.493-.441a.812.812,0,0,0,.623-1.065l-.883-2.363a.806.806,0,0,1,.234-.883Zm-12.048,6.8a7.426,7.426,0,1,1,7.426-7.426A7.424,7.424,0,0,1,14.815,22.241Z" transform="translate(-2.475 -2.475)" fill="#3f63ab"/>
      </g>
    </g>
  </g>
</svg>
