<svg xmlns="http://www.w3.org/2000/svg" width="37.917" height="49.562" viewBox="0 0 37.917 49.562">
  <g id="Group_2284" data-name="Group 2284" transform="translate(-165.25 -334.655)">
    <g id="Group_2283" data-name="Group 2283" transform="translate(175.308 356.358)">
      <g id="Group_316" data-name="Group 316" transform="translate(9.158 9.158)">
        <path id="Path_38" data-name="Path 38" d="M33.509,27.5a6.009,6.009,0,1,0,6.009,6.009A6.018,6.018,0,0,0,33.509,27.5Zm3.151,4.807L33.4,35.832a.869.869,0,0,1-.614.267h0a.869.869,0,0,1-.614-.267l-1.816-1.976a.832.832,0,1,1,1.228-1.122l1.228,1.335,2.644-2.858a.813.813,0,1,1,1.2,1.095Z" transform="translate(-27.5 -27.5)" fill="#3f63ab"/>
      </g>
      <g id="Group_317" data-name="Group 317" transform="translate(2.475 2.475)">
        <path id="Path_39" data-name="Path 39" d="M27.559,15.808a.806.806,0,0,0,0-1.255L25.582,12.87a.829.829,0,0,1-.24-.908l.881-2.43a.845.845,0,0,0-.641-1.095l-2.564-.481a.793.793,0,0,1-.668-.668L21.9,4.752A.835.835,0,0,0,20.8,4.111l-2.43.881a.829.829,0,0,1-.908-.24L15.781,2.775a.806.806,0,0,0-1.255,0L12.87,4.752a.829.829,0,0,1-.908.24l-2.43-.881a.826.826,0,0,0-1.095.641L7.956,7.315a.793.793,0,0,1-.668.668l-2.537.454a.835.835,0,0,0-.641,1.095l.881,2.43a.829.829,0,0,1-.24.908L2.775,14.553a.806.806,0,0,0,0,1.255L4.752,17.49a.829.829,0,0,1,.24.908l-.881,2.43A.81.81,0,0,0,4.752,21.9l2.564.454a.793.793,0,0,1,.668.668l.454,2.564a.835.835,0,0,0,1.095.641l2.43-.881a.829.829,0,0,1,.908.24l1.682,1.976a.806.806,0,0,0,1.255,0l1.682-1.976a.829.829,0,0,1,.908-.24l2.43.881a.845.845,0,0,0,1.095-.641l.454-2.564a.793.793,0,0,1,.668-.668l2.564-.454A.835.835,0,0,0,26.25,20.8l-.908-2.43a.829.829,0,0,1,.24-.908Zm-12.392,7A7.638,7.638,0,1,1,22.8,15.167,7.636,7.636,0,0,1,15.167,22.8Z" transform="translate(-2.475 -2.475)" fill="#3f63ab"/>
      </g>
    </g>
    <path id="Subtraction_3" data-name="Subtraction 3" d="M1607.264,43.695h-9.8A2.523,2.523,0,0,1,1595,41.116V8.977c0-.053,0-.11.006-.175A2.307,2.307,0,0,1,1597.3,6.67c.057,0,.114,0,.17.006h4.823V9.537c0,.43.214,1.066.673,1.066h16.547c.452,0,.729-.621.729-1.066V6.676h4.824c.042,0,.1-.006.151-.006h.023a2.3,2.3,0,0,1,2.293,2.306V23.99a1.011,1.011,0,0,0-.409-.087.994.994,0,0,0-.315.051l-2.839,1.03a1.042,1.042,0,0,1-.331.054.922.922,0,0,1-.729-.334l-1.966-2.308a.941.941,0,0,0-1.466,0l-1.934,2.308a.922.922,0,0,1-.729.334,1.042,1.042,0,0,1-.331-.054l-2.839-1.03a1.082,1.082,0,0,0-.327-.051.941.941,0,0,0-.952.8L1611.8,27.7a.928.928,0,0,1-.779.78l-2.964.53a.925.925,0,0,0-.654.442,1,1,0,0,0-.094.837l1.03,2.84a.962.962,0,0,1-.281,1.06l-2.308,1.966a.941.941,0,0,0,0,1.466l2.308,1.966a.962.962,0,0,1,.281,1.06l-1.03,2.839a1,1,0,0,0-.046.211Zm-7.749-9.663a.859.859,0,0,0-.644,1.418l2.3,2.356a.893.893,0,0,0,.617.28.79.79,0,0,0,.561-.28l4.375-4.1a.842.842,0,0,0-1.122-1.234l-3.814,3.59-1.682-1.8A.839.839,0,0,0,1599.515,34.032Zm0-8.974a.859.859,0,0,0-.644,1.418l2.3,2.355a.9.9,0,0,0,.617.281.791.791,0,0,0,.561-.281l4.375-4.094a.842.842,0,0,0-.645-1.383.836.836,0,0,0-.477.149l-3.814,3.589L1600.1,25.3A.839.839,0,0,0,1599.515,25.058Zm0-8.975a.859.859,0,0,0-.644,1.418l2.3,2.356a.893.893,0,0,0,.617.28.786.786,0,0,0,.561-.28l4.375-4.095a.842.842,0,0,0-1.122-1.234l-3.814,3.59-1.682-1.795A.839.839,0,0,0,1599.515,16.083Zm10.629,1.25a.842.842,0,1,0,0,1.683h12.9a.842.842,0,0,0,0-1.683Zm8.413-8.413h-14.583V3.311h3.116a.844.844,0,0,0,.81-.617A3.311,3.311,0,0,1,1611.152,0h.058l.116,0a3.256,3.256,0,0,1,3.193,2.638.9.9,0,0,0,.842.673h3.2V8.919Z" transform="translate(-1429.75 334.655)" fill="#3f63ab"/>
  </g>
</svg>
