<svg xmlns="http://www.w3.org/2000/svg" width="41.576" height="41.576" viewBox="0 0 41.576 41.576">
  <g id="Group_2275" data-name="Group 2275" transform="translate(-2.475 -2.475)">
    <g id="Group_316" data-name="Group 316" transform="translate(13.421 13.421)">
      <path id="Path_38" data-name="Path 38" d="M37.342,27.5a9.842,9.842,0,1,0,9.842,9.842A9.857,9.857,0,0,0,37.342,27.5ZM42.5,35.374l-5.336,5.774a1.424,1.424,0,0,1-1.006.437h0a1.424,1.424,0,0,1-1.006-.437L32.18,37.911a1.362,1.362,0,0,1,2.012-1.837L36.2,38.26l4.33-4.68A1.332,1.332,0,1,1,42.5,35.374Z" transform="translate(-27.5 -27.5)" fill="#3f63ab"/>
    </g>
    <g id="Group_317" data-name="Group 317" transform="translate(2.475 2.475)">
      <path id="Path_39" data-name="Path 39" d="M43.559,24.313a1.32,1.32,0,0,0,0-2.056L40.322,19.5a1.358,1.358,0,0,1-.394-1.487l1.443-3.98a1.384,1.384,0,0,0-1.05-1.793l-4.2-.787a1.3,1.3,0,0,1-1.094-1.094L34.286,6.2a1.368,1.368,0,0,0-1.793-1.05L28.512,6.6A1.358,1.358,0,0,1,27.025,6.2L24.269,2.967a1.32,1.32,0,0,0-2.056,0L19.5,6.2a1.358,1.358,0,0,1-1.487.394l-3.98-1.443A1.353,1.353,0,0,0,12.24,6.2l-.787,4.2A1.3,1.3,0,0,1,10.359,11.5L6.2,12.24a1.368,1.368,0,0,0-1.05,1.793L6.6,18.014A1.358,1.358,0,0,1,6.2,19.5L2.967,22.257a1.32,1.32,0,0,0,0,2.056L6.2,27.069A1.358,1.358,0,0,1,6.6,28.556l-1.443,3.98a1.327,1.327,0,0,0,1.05,1.75l4.2.744A1.3,1.3,0,0,1,11.5,36.123l.744,4.2a1.368,1.368,0,0,0,1.793,1.05l3.98-1.443a1.358,1.358,0,0,1,1.487.394l2.756,3.237a1.32,1.32,0,0,0,2.056,0l2.756-3.237a1.358,1.358,0,0,1,1.487-.394l3.98,1.443a1.384,1.384,0,0,0,1.793-1.05l.744-4.2a1.3,1.3,0,0,1,1.094-1.094l4.2-.744a1.368,1.368,0,0,0,1.05-1.793l-1.487-3.98a1.358,1.358,0,0,1,.394-1.487Zm-20.3,11.46a12.51,12.51,0,1,1,12.51-12.51A12.508,12.508,0,0,1,23.263,35.773Z" transform="translate(-2.475 -2.475)" fill="#3f63ab"/>
    </g>
  </g>
</svg>
