<svg xmlns="http://www.w3.org/2000/svg" width="50.184" height="35.13" viewBox="0 0 50.184 35.13">
  <g id="Group_2305" data-name="Group 2305" transform="translate(-41 -491.5)">
    <path id="Exclusion_2" data-name="Exclusion 2" d="M1604.842,19.684a9.842,9.842,0,1,1,9.841-9.842A9.854,9.854,0,0,1,1604.842,19.684ZM1604.668,6A6.1,6.1,0,0,0,1599,9.864a6.088,6.088,0,0,0,11.335,0A6.1,6.1,0,0,0,1604.668,6Zm0,6.44a2.576,2.576,0,1,1,2.577-2.577A2.549,2.549,0,0,1,1604.668,12.441Zm0-4.122a1.546,1.546,0,1,0,1.546,1.545A1.511,1.511,0,0,0,1604.668,8.319Z" transform="translate(-1524 492)" fill="#3f63ab" stroke="rgba(0,0,0,0)" stroke-miterlimit="10" stroke-width="1"/>
    <g id="Group_2304" data-name="Group 2304" transform="translate(-248.685 -2.683)">
      <path id="Subtraction_5" data-name="Subtraction 5" d="M1630.706,35.313h-30.946a4.761,4.761,0,1,1,4.761-4.761,4.69,4.69,0,0,1-.661,2.381h26.845v2.38Zm4.92-4.761H1606.9V9.128h17a11.156,11.156,0,0,0-.085,1.372,11.012,11.012,0,0,0,11,11c.271,0,.544-.01.814-.03v9.081ZM1610.8,23.411v2.381h11.9V23.411Zm0-4.761V21.03h7.141V18.65Zm0-4.761v2.381h11.9V13.889ZM1595,25.245v0l0-16.115a4.766,4.766,0,0,1,4.761-4.761,4.638,4.638,0,0,1,3.356,1.4,4.638,4.638,0,0,1,1.4,3.356V25.241a7.1,7.1,0,0,0-9.522,0Z" transform="translate(-1305.313 494)" fill="#3f63ab"/>
    </g>
  </g>
</svg>
