<svg xmlns="http://www.w3.org/2000/svg" width="49.632" height="34.63" viewBox="0 0 49.632 34.63">
  <g id="Group_2303" data-name="Group 2303" transform="translate(-289.685 -494.683)">
    <path id="Subtraction_5" data-name="Subtraction 5" d="M1630.706,35.313h-30.946a4.761,4.761,0,1,1,4.761-4.761,4.69,4.69,0,0,1-.661,2.381h26.845v2.38Zm4.92-4.761H1606.9V9.128h17a11.156,11.156,0,0,0-.085,1.372,11.012,11.012,0,0,0,11,11c.271,0,.544-.01.814-.03v9.081ZM1610.8,23.411v2.381h11.9V23.411Zm0-4.761V21.03h7.141V18.65Zm0-4.761v2.381h11.9V13.889ZM1595,25.245v0l0-16.115a4.766,4.766,0,0,1,4.761-4.761,4.638,4.638,0,0,1,3.356,1.4,4.638,4.638,0,0,1,1.4,3.356V25.241a7.1,7.1,0,0,0-9.522,0Z" transform="translate(-1305.313 494)" fill="#3f63ab"/>
    <g id="Group_2301" data-name="Group 2301" transform="translate(319.633 494.683)">
      <path id="Path_38" data-name="Path 38" d="M37.342,27.5a9.842,9.842,0,1,0,9.842,9.842A9.857,9.857,0,0,0,37.342,27.5ZM42.5,35.374l-5.336,5.774a1.424,1.424,0,0,1-1.006.437h0a1.424,1.424,0,0,1-1.006-.437L32.18,37.911a1.362,1.362,0,0,1,2.012-1.837L36.2,38.26l4.33-4.68A1.332,1.332,0,1,1,42.5,35.374Z" transform="translate(-27.5 -27.5)" fill="#3f63ab"/>
    </g>
  </g>
</svg>
