<svg xmlns="http://www.w3.org/2000/svg" width="50.184" height="35.13" viewBox="0 0 50.184 35.13">
  <g id="Group_2312" data-name="Group 2312" transform="translate(-285 -491.5)">
    <path id="Exclusion_3" data-name="Exclusion 3" d="M1604.842,19.684a9.842,9.842,0,1,1,0-19.684,9.641,9.641,0,0,1,6.954,2.887,10.028,10.028,0,0,1,2.887,6.954A9.853,9.853,0,0,1,1604.842,19.684Zm-1.436-8.867h0c3.166.1,5.138,1.453,6.029,4.126a.4.4,0,0,0,.38.274.4.4,0,0,0,.4-.4c0-4.726-2.8-8.181-6.81-8.4V4.4a.4.4,0,0,0-.7-.268L1599.1,8.139a.4.4,0,0,0-.013.52l3.605,4.407a.4.4,0,0,0,.711-.253v-2Z" transform="translate(-1280 492)" fill="#3f63ab" stroke="rgba(0,0,0,0)" stroke-miterlimit="10" stroke-width="1"/>
    <g id="Group_2302" data-name="Group 2302" transform="translate(-4.685 -2.683)">
      <path id="Subtraction_5" data-name="Subtraction 5" d="M1630.706,35.313h-30.946a4.761,4.761,0,1,1,4.761-4.761,4.69,4.69,0,0,1-.661,2.381h26.845v2.38Zm4.92-4.761H1606.9V9.128h17a11.156,11.156,0,0,0-.085,1.372,11.012,11.012,0,0,0,11,11c.271,0,.544-.01.814-.03v9.081ZM1610.8,23.411v2.381h11.9V23.411Zm0-4.761V21.03h7.141V18.65Zm0-4.761v2.381h11.9V13.889ZM1595,25.245v0l0-16.115a4.766,4.766,0,0,1,4.761-4.761,4.638,4.638,0,0,1,3.356,1.4,4.638,4.638,0,0,1,1.4,3.356V25.241a7.1,7.1,0,0,0-9.522,0Z" transform="translate(-1305.313 494)" fill="#3f63ab"/>
    </g>
  </g>
</svg>
